<?xml version="1.0" encoding="UTF-8" standalone="no"?>
<svg width="889px" height="791px" viewBox="0 0 889 791" version="1.1" xmlns="http://www.w3.org/2000/svg" xmlns:xlink="http://www.w3.org/1999/xlink">
    <!-- Generator: sketchtool 50.2 (55047) - http://www.bohemiancoding.com/sketch -->
    <title>A2A5978C-F053-4047-B46A-F71549A58D8F</title>
    <desc>Created with sketchtool.</desc>
    <defs></defs>
    <g id="Page-1" stroke="none" stroke-width="1" fill="none" fill-rule="evenodd" fill-opacity="0.110224185" opacity="0.26">
        <g id="Garret-James" transform="translate(0.000000, -503.000000)" fill="#838992" fill-rule="nonzero">
            <g id="Group-15" transform="translate(-21.000000, 503.000000)">
                <g id="Group-4">
                    <g id="circuit-board">
                        <path d="M132.004532,582.125556 C133.541186,575.589733 140.528548,571.125801 148.172915,571.796256 C155.817281,572.466711 161.635147,578.053735 161.635147,584.724331 C161.635147,591.394928 155.817281,596.981952 148.172915,597.652406 C140.528548,598.322861 133.541186,593.858929 132.004532,587.323106 L0,587.323106 L0,582.125556 L132.004532,582.125556 Z M610.932538,706.866747 C612.469193,700.330924 619.456555,695.866992 627.100921,696.537447 C634.745287,697.207902 640.563154,702.794925 640.563154,709.465522 C640.563154,716.136118 634.745287,721.723142 627.100921,722.393597 C619.456555,723.064052 612.469193,718.60012 610.932538,712.064297 L245.450603,712.064297 L245.450603,706.866747 L610.932538,706.866747 Z M783.945281,587.323106 C782.408626,593.858929 775.421264,598.322861 767.776898,597.652406 C760.132531,596.981952 754.314665,591.394928 754.314665,584.724331 C754.314665,578.053735 760.132531,572.466711 767.776898,571.796256 C775.421264,571.125801 782.408626,575.589733 783.945281,582.125556 L909.963212,582.125556 L909.963212,587.323106 L783.945281,587.323106 Z M783.945281,628.903503 C782.408626,635.439326 775.421264,639.903258 767.776898,639.232803 C760.132531,638.562348 754.314665,632.975325 754.314665,626.304728 C754.314665,619.634132 760.132531,614.047108 767.776898,613.376653 C775.421264,612.706198 782.408626,617.17013 783.945281,623.705953 L909.963212,623.705953 L909.963212,628.903503 L783.945281,628.903503 Z M802.503741,332.643175 C804.040395,326.107352 811.027757,321.64342 818.672124,322.313875 C826.31649,322.98433 832.134356,328.571353 832.134356,335.24195 C832.134356,341.912546 826.31649,347.49957 818.672124,348.170025 C811.027757,348.84048 804.040395,344.376548 802.503741,337.840725 L544.481277,337.840725 C542.944623,344.376548 535.957261,348.84048 528.312894,348.170025 C520.668528,347.49957 514.850662,341.912546 514.850662,335.24195 C514.850662,328.571353 520.668528,322.98433 528.312894,322.313875 C535.957261,321.64342 542.944623,326.107352 544.481277,332.643175 L802.503741,332.643175 Z M36.2189305,207.901984 C37.7555851,201.366161 44.7429472,196.902229 52.3873134,197.572684 C60.0316796,198.243139 65.8495462,203.830163 65.8495462,210.500759 C65.8495462,217.171356 60.0316796,222.75838 52.3873134,223.428834 C44.7429472,224.099289 37.7555851,219.635357 36.2189305,213.099534 L0,213.099534 L0,207.901984 L36.2189305,207.901984 Z M592.374078,296.260328 C590.837423,302.796151 583.850061,307.260083 576.205695,306.589628 C568.561329,305.919173 562.743462,300.33215 562.743462,293.661553 C562.743462,286.990957 568.561329,281.403933 576.205695,280.733478 C583.850061,280.063023 590.837423,284.526955 592.374078,291.062778 L850.396541,291.062778 C851.933196,284.526955 858.920558,280.063023 866.564924,280.733478 C874.209291,281.403933 880.027157,286.990957 880.027157,293.661553 C880.027157,300.33215 874.209291,305.919173 866.564924,306.589628 C858.920558,307.260083 851.933196,302.796151 850.396541,296.260328 L592.374078,296.260328 Z M772.27141,31.4451751 C779.79945,32.7792944 784.94106,38.8457028 784.168822,45.4825204 C783.396585,52.119338 776.961383,57.1703936 769.27811,57.1703936 C761.594837,57.1703936 755.159636,52.119338 754.387398,45.4825204 C753.61516,38.8457028 758.756771,32.7792944 766.28481,31.4451751 L766.28481,0 L772.27141,0 L772.27141,31.4451751 Z M580.700208,571.990335 C588.228247,573.324454 593.369858,579.390862 592.59762,586.02768 C591.825382,592.664498 585.390181,597.715553 577.706908,597.715553 C570.023635,597.715553 563.588433,592.664498 562.816196,586.02768 C562.043958,579.390862 567.185568,573.324454 574.713608,571.990335 L574.713608,431.13674 C567.185568,429.802621 562.043958,423.736213 562.816196,417.099395 C563.588433,410.462577 570.023635,405.411522 577.706908,405.411522 C585.390181,405.411522 591.825382,410.462577 592.59762,417.099395 C593.369858,423.736213 588.228247,429.802621 580.700208,431.13674 L580.700208,571.990335 Z M724.37861,56.9131682 L724.37861,207.901984 L909.963212,207.901984 L909.963212,213.099534 L718.39201,213.099534 L718.39201,56.9131682 C710.86397,55.5790489 705.72236,49.5126406 706.494598,42.875823 C707.266835,36.2390054 713.702037,31.1879498 721.38531,31.1879498 C729.068583,31.1879498 735.503784,36.2390054 736.276022,42.875823 C737.04826,49.5126406 731.906649,55.5790489 724.37861,56.9131682 Z M772.27141,98.4935651 L772.27141,166.321588 L909.963212,166.321588 L909.963212,171.519137 L766.28481,171.519137 L766.28481,98.4935651 C758.756771,97.1594458 753.61516,91.0930375 754.387398,84.4562199 C755.159636,77.8194023 761.594837,72.7683466 769.27811,72.7683466 C776.961383,72.7683466 783.396585,77.8194023 784.168822,84.4562199 C784.94106,91.0930375 779.79945,97.1594458 772.27141,98.4935651 Z M389.129005,347.975946 L389.129005,540.54516 L437.021806,540.54516 L437.021806,571.990335 C444.549845,573.324454 449.691456,579.390862 448.919218,586.02768 C448.14698,592.664498 441.711779,597.715553 434.028506,597.715553 C426.345233,597.715553 419.910032,592.664498 419.137794,586.02768 C418.365556,579.390862 423.507166,573.324454 431.035206,571.990335 L431.035206,545.742709 L383.142405,545.742709 L383.142405,347.975946 C375.614366,346.641827 370.472755,340.575419 371.244993,333.938601 C372.017231,327.301784 378.452432,322.250728 386.135705,322.250728 C393.818978,322.250728 400.25418,327.301784 401.026417,333.938601 C401.798655,340.575419 396.657045,346.641827 389.129005,347.975946 Z M371.468535,291.062778 C373.00519,284.526955 379.992552,280.063023 387.636918,280.733478 C395.281284,281.403933 401.099151,286.990957 401.099151,293.661553 C401.099151,300.33215 395.281284,305.919173 387.636918,306.589628 C379.992552,307.260083 373.00519,302.796151 371.468535,296.260328 L341.236205,296.260328 L341.236205,421.001519 L257.124473,421.001519 C255.587819,427.537342 248.600457,432.001273 240.956091,431.330819 C233.311724,430.660364 227.493858,425.07334 227.493858,418.402744 C227.493858,411.732147 233.311724,406.145123 240.956091,405.474669 C248.600457,404.804214 255.587819,409.268146 257.124473,415.803969 L335.249605,415.803969 L335.249605,291.062778 L371.468535,291.062778 Z M352.910075,628.903503 C351.37342,635.439326 344.386058,639.903258 336.741692,639.232803 C329.097326,638.562348 323.279459,632.975325 323.279459,626.304728 C323.279459,619.634132 329.097326,614.047108 336.741692,613.376653 C344.386058,612.706198 351.37342,617.17013 352.910075,623.705953 L526.820807,623.705953 L526.820807,431.13674 C519.292768,429.802621 514.151157,423.736213 514.923395,417.099395 C515.695633,410.462577 522.130834,405.411522 529.814107,405.411522 C537.49738,405.411522 543.932581,410.462577 544.704819,417.099395 C545.477057,423.736213 540.335447,429.802621 532.807407,431.13674 L532.807407,628.903503 L352.910075,628.903503 Z M305.017274,462.581915 C303.480619,469.117738 296.493257,473.58167 288.848891,472.911216 C281.204525,472.240761 275.386658,466.653737 275.386658,459.983141 C275.386658,453.312544 281.204525,447.72552 288.848891,447.055066 C296.493257,446.384611 303.480619,450.848543 305.017274,457.384366 L341.236205,457.384366 L341.236205,582.125556 L371.468535,582.125556 C373.00519,575.589733 379.992552,571.125801 387.636918,571.796256 C395.281284,572.466711 401.099151,578.053735 401.099151,584.724331 C401.099151,591.394928 395.281284,596.981952 387.636918,597.652406 C379.992552,598.322861 373.00519,593.858929 371.468535,587.323106 L335.249605,587.323106 L335.249605,462.581915 L305.017274,462.581915 Z M197.557803,738.311922 C205.085842,739.646042 210.227453,745.71245 209.455215,752.349268 C208.682977,758.986085 202.247776,764.037141 194.564503,764.037141 C186.881229,764.037141 180.446028,758.986085 179.67379,752.349268 C178.901553,745.71245 184.043163,739.646042 191.571203,738.311922 L191.571203,712.064297 L149.665002,712.064297 L149.665002,790.027541 L143.678402,790.027541 L143.678402,706.866747 L197.557803,706.866747 L197.557803,738.311922 Z M706.71814,457.384366 C708.254794,450.848543 715.242156,446.384611 722.886522,447.055066 C730.530889,447.72552 736.348755,453.312544 736.348755,459.983141 C736.348755,466.653737 730.530889,472.240761 722.886522,472.911216 C715.242156,473.58167 708.254794,469.117738 706.71814,462.581915 L676.485809,462.581915 L676.485809,706.866747 L820.164211,706.866747 L820.164211,790.027541 L814.177611,790.027541 L814.177611,712.064297 L670.499209,712.064297 L670.499209,457.384366 L706.71814,457.384366 Z M783.945281,379.421122 C782.408626,385.956945 775.421264,390.420877 767.776898,389.750422 C760.132531,389.079967 754.314665,383.492943 754.314665,376.822347 C754.314665,370.15175 760.132531,364.564727 767.776898,363.894272 C775.421264,363.223817 782.408626,367.687749 783.945281,374.223572 L820.164211,374.223572 L820.164211,488.829541 C827.692251,490.16366 832.833861,496.230069 832.061623,502.866886 C831.289385,509.503704 824.854184,514.554759 817.170911,514.554759 C809.487638,514.554759 803.052437,509.503704 802.280199,502.866886 C801.507961,496.230069 806.649571,490.16366 814.177611,488.829541 L814.177611,379.421122 L783.945281,379.421122 Z M592.374078,628.903503 C590.837423,635.439326 583.850061,639.903258 576.205695,639.232803 C568.561329,638.562348 562.743462,632.975325 562.743462,626.304728 C562.743462,619.634132 568.561329,614.047108 576.205695,613.376653 C583.850061,612.706198 590.837423,617.17013 592.374078,623.705953 L622.606408,623.705953 L622.606408,415.803969 L670.499209,415.803969 L670.499209,379.421122 L544.481277,379.421122 C542.944623,385.956945 535.957261,390.420877 528.312894,389.750422 C520.668528,389.079967 514.850662,383.492943 514.850662,376.822347 C514.850662,370.15175 520.668528,364.564727 528.312894,363.894272 C535.957261,363.223817 542.944623,367.687749 544.481277,374.223572 L676.485809,374.223572 L676.485809,421.001519 L628.593008,421.001519 L628.593008,628.903503 L592.374078,628.903503 Z M850.396541,83.1607938 C851.933196,76.6249707 858.920558,72.1610388 866.564924,72.8314935 C874.209291,73.5019483 880.027157,79.0889721 880.027157,85.7595686 C880.027157,92.4301651 874.209291,98.0171889 866.564924,98.6876436 C858.920558,99.3580983 851.933196,94.8941664 850.396541,88.3583434 L814.177611,88.3583434 L814.177611,0 L820.164211,0 L820.164211,83.1607938 L850.396541,83.1607938 Z M293.343404,264.815153 L293.343404,379.421122 L161.338872,379.421122 C159.802218,385.956945 152.814856,390.420877 145.170489,389.750422 C137.526123,389.079967 131.708256,383.492943 131.708256,376.822347 C131.708256,370.15175 137.526123,364.564727 145.170489,363.894272 C152.814856,363.223817 159.802218,367.687749 161.338872,374.223572 L287.356804,374.223572 L287.356804,264.815153 C279.828764,263.481033 274.687154,257.414625 275.459392,250.777807 C276.23163,244.14099 282.666831,239.089934 290.350104,239.089934 C298.033377,239.089934 304.468578,244.14099 305.240816,250.777807 C306.013054,257.414625 300.871443,263.481033 293.343404,264.815153 Z M161.338872,88.3583434 C159.802218,94.8941664 152.814856,99.3580983 145.170489,98.6876436 C137.526123,98.0171889 131.708256,92.4301651 131.708256,85.7595686 C131.708256,79.0889721 137.526123,73.5019483 145.170489,72.8314935 C152.814856,72.1610388 159.802218,76.6249707 161.338872,83.1607938 L239.464003,83.1607938 L239.464003,0 L245.450603,0 L245.450603,88.3583434 L161.338872,88.3583434 Z M341.236205,98.4935651 L341.236205,171.519137 L245.450603,171.519137 L245.450603,337.840725 L209.231673,337.840725 C207.695018,344.376548 200.707656,348.84048 193.06329,348.170025 C185.418924,347.49957 179.601057,341.912546 179.601057,335.24195 C179.601057,328.571353 185.418924,322.98433 193.06329,322.313875 C200.707656,321.64342 207.695018,326.107352 209.231673,332.643175 L239.464003,332.643175 L239.464003,166.321588 L335.249605,166.321588 L335.249605,98.4935651 C327.721565,97.1594458 322.579955,91.0930375 323.352192,84.4562199 C324.12443,77.8194023 330.559631,72.7683466 338.242905,72.7683466 C345.926178,72.7683466 352.361379,77.8194023 353.133617,84.4562199 C353.905854,91.0930375 348.764244,97.1594458 341.236205,98.4935651 Z M305.017274,213.099534 C303.480619,219.635357 296.493257,224.099289 288.848891,223.428834 C281.204525,222.75838 275.386658,217.171356 275.386658,210.500759 C275.386658,203.830163 281.204525,198.243139 288.848891,197.572684 C296.493257,196.902229 303.480619,201.366161 305.017274,207.901984 L383.142405,207.901984 L383.142405,98.4935651 C375.614366,97.1594458 370.472755,91.0930375 371.244993,84.4562199 C372.017231,77.8194023 378.452432,72.7683466 386.135705,72.7683466 C393.818978,72.7683466 400.25418,77.8194023 401.026417,84.4562199 C401.798655,91.0930375 396.657045,97.1594458 389.129005,98.4935651 L389.129005,213.099534 L305.017274,213.099534 Z M352.910075,46.7779465 C351.37342,53.3137696 344.386058,57.7777015 336.741692,57.1072467 C329.097326,56.436792 323.279459,50.8497682 323.279459,44.1791717 C323.279459,37.5085752 329.097326,31.9215514 336.741692,31.2510967 C344.386058,30.5806419 351.37342,35.0445738 352.910075,41.5803969 L437.021806,41.5803969 L437.021806,156.186366 C444.549845,157.520485 449.691456,163.586893 448.919218,170.223711 C448.14698,176.860529 441.711779,181.911584 434.028506,181.911584 C426.345233,181.911584 419.910032,176.860529 419.137794,170.223711 C418.365556,163.586893 423.507166,157.520485 431.035206,156.186366 L431.035206,46.7779465 L352.910075,46.7779465 Z M658.825339,748.447144 C660.361993,741.911321 667.349356,737.447389 674.993722,738.117844 C682.638088,738.788299 688.455955,744.375322 688.455955,751.045919 C688.455955,757.716515 682.638088,763.303539 674.993722,763.973994 C667.349356,764.644449 660.361993,760.180517 658.825339,753.644694 L293.343404,753.644694 L293.343404,790.027541 L287.356804,790.027541 L287.356804,748.447144 L658.825339,748.447144 Z M724.37861,389.556343 L724.37861,415.803969 L772.27141,415.803969 L772.27141,504.162312 L724.37861,504.162312 L724.37861,665.28635 L868.057012,665.28635 L868.057012,790.027541 L862.070412,790.027541 L862.070412,670.4839 L718.39201,670.4839 L718.39201,498.964763 L766.28481,498.964763 L766.28481,421.001519 L718.39201,421.001519 L718.39201,389.556343 C710.86397,388.222224 705.72236,382.155816 706.494598,375.518998 C707.266835,368.882181 713.702037,363.831125 721.38531,363.831125 C729.068583,363.831125 735.503784,368.882181 736.276022,375.518998 C737.04826,382.155816 731.906649,388.222224 724.37861,389.556343 Z M161.338872,46.7779465 C159.802218,53.3137696 152.814856,57.7777015 145.170489,57.1072467 C137.526123,56.436792 131.708256,50.8497682 131.708256,44.1791717 C131.708256,37.5085752 137.526123,31.9215514 145.170489,31.2510967 C152.814856,30.5806419 159.802218,35.0445738 161.338872,41.5803969 L191.571203,41.5803969 L191.571203,5.19754961 L143.678402,5.19754961 L143.678402,0 L197.557803,0 L197.557803,46.7779465 L161.338872,46.7779465 Z M496.588477,129.93874 C495.051822,136.474563 488.06446,140.938495 480.420094,140.268041 C472.775728,139.597586 466.957861,134.010562 466.957861,127.339965 C466.957861,120.669369 472.775728,115.082345 480.420094,114.41189 C488.06446,113.741436 495.051822,118.205368 496.588477,124.741191 L574.713608,124.741191 L574.713608,0 L724.37861,0 L724.37861,5.19754961 L580.700208,5.19754961 L580.700208,129.93874 L496.588477,129.93874 Z M352.910075,5.19754961 C351.840672,9.7469684 348.056956,13.455481 342.984216,14.9261267 C337.911476,16.3967724 332.320382,15.406125 328.317046,12.3273519 C324.313709,9.24857879 322.506331,4.54941879 323.575734,0 L329.771865,0 C328.463205,3.22978199 329.734767,6.82287997 332.906458,8.85752503 C336.078149,10.8921701 340.40766,10.8921701 343.579351,8.85752503 C346.751042,6.82287997 348.022605,3.22978199 346.713944,1.11798654e-14 L532.807407,0 L532.807407,88.3583434 L478.928006,88.3583434 L478.928006,56.9131682 C471.399967,55.5790489 466.258357,49.5126406 467.030594,42.875823 C467.802832,36.2390054 474.238033,31.1879498 481.921306,31.1879498 C489.60458,31.1879498 496.039781,36.2390054 496.812019,42.875823 C497.584256,49.5126406 492.442646,55.5790489 484.914607,56.9131682 L484.914607,83.1607938 L526.820807,83.1607938 L526.820807,5.19754961 L352.910075,5.19754961 Z M352.910075,254.679931 C351.37342,261.215754 344.386058,265.679686 336.741692,265.009231 C329.097326,264.338776 323.279459,258.751753 323.279459,252.081156 C323.279459,245.41056 329.097326,239.823536 336.741692,239.153081 C344.386058,238.482626 351.37342,242.946558 352.910075,249.482381 L410.082106,249.482381 L505.867707,166.321588 L622.606408,166.321588 L622.606408,56.9131682 C615.078369,55.5790489 609.936758,49.5126406 610.708996,42.875823 C611.481234,36.2390054 617.916435,31.1879498 625.599708,31.1879498 C633.282982,31.1879498 639.718183,36.2390054 640.490421,42.875823 C641.262658,49.5126406 636.121048,55.5790489 628.593008,56.9131682 L628.593008,171.519137 L508.352146,171.519137 L412.566545,254.679931 L352.910075,254.679931 Z M437.021806,488.829541 C444.549845,490.16366 449.691456,496.230069 448.919218,502.866886 C448.14698,509.503704 441.711779,514.554759 434.028506,514.554759 C426.345233,514.554759 419.910032,509.503704 419.137794,502.866886 C418.365556,496.230069 423.507166,490.16366 431.035206,488.829541 L431.035206,289.997281 L525.593554,207.901984 L670.499209,207.901984 L670.499209,56.9131682 C662.97117,55.5790489 657.829559,49.5126406 658.601797,42.875823 C659.374035,36.2390054 665.809236,31.1879498 673.492509,31.1879498 C681.175782,31.1879498 687.610983,36.2390054 688.383221,42.875823 C689.155459,49.5126406 684.013849,55.5790489 676.485809,56.9131682 L676.485809,213.099534 L528.04806,213.099534 L437.021806,292.128276 L437.021806,488.829541 Z M484.914607,571.990335 C492.442646,573.324454 497.584256,579.390862 496.812019,586.02768 C496.039781,592.664498 489.60458,597.715553 481.921306,597.715553 C474.238033,597.715553 467.802832,592.664498 467.030594,586.02768 C466.258357,579.390862 471.399967,573.324454 478.928006,571.990335 L478.928006,313.386254 L552.533254,249.482381 L898.289342,249.482381 C899.488472,244.377637 904.083507,240.388241 909.963212,239.34716 L909.963212,244.726623 C906.368428,245.824525 903.963262,248.772695 903.963262,252.081156 C903.963262,255.389617 906.368428,258.337787 909.963212,259.435689 L909.963212,264.815153 C904.083507,263.774071 899.488472,259.784675 898.289342,254.679931 L554.98776,254.679931 L484.914607,315.517249 L484.914607,571.990335 Z M53.8794007,405.668747 C61.4074402,407.002866 66.5490506,413.069275 65.7768128,419.706092 C65.004575,426.34291 58.5693738,431.393966 50.8861007,431.393966 C43.2028275,431.393966 36.7676264,426.34291 35.9953886,419.706092 C35.2231507,413.069275 40.3647611,407.002866 47.8928006,405.668747 L47.8928006,396.547048 L191.571203,271.805857 L191.571203,124.741191 L287.356804,124.741191 L287.356804,0 L293.343404,0 L293.343404,129.93874 L197.557803,129.93874 L197.557803,273.936852 L53.8794007,398.678043 L53.8794007,405.668747 Z M149.665002,140.073962 L149.665002,253.146654 L5.98660008,377.887844 L5.98660008,540.54516 L84.1117311,540.54516 C85.6483858,534.009337 92.6357478,529.545405 100.280114,530.215859 C107.92448,530.886314 113.742347,536.473338 113.742347,543.143934 C113.742347,549.814531 107.92448,555.401555 100.280114,556.072009 C92.6357478,556.742464 85.6483858,552.278532 84.1117311,545.742709 L0,545.742709 L0,375.756849 L143.678402,251.015658 L143.678402,140.073962 C136.150362,138.739843 131.008752,132.673434 131.78099,126.036617 C132.553228,119.399799 138.988429,114.348744 146.671702,114.348744 C154.354975,114.348744 160.790176,119.399799 161.562414,126.036617 C162.334652,132.673434 157.193042,138.739843 149.665002,140.073962 Z M101.772201,181.654359 L101.772201,232.356455 L0,320.714799 L0,313.386254 L95.7856013,230.22546 L95.7856013,181.654359 C88.2575618,180.32024 83.1159514,174.253831 83.8881892,167.617014 C84.660427,160.980196 91.0956282,155.92914 98.7789013,155.92914 C106.462174,155.92914 112.897376,160.980196 113.669613,167.617014 C114.441851,174.253831 109.300241,180.32024 101.772201,181.654359 Z M36.2189305,83.1607938 C37.7555851,76.6249707 44.7429472,72.1610388 52.3873134,72.8314935 C60.0316796,73.5019483 65.8495462,79.0889721 65.8495462,85.7595686 C65.8495462,92.4301651 60.0316796,98.0171889 52.3873134,98.6876436 C44.7429472,99.3580983 37.7555851,94.8941664 36.2189305,88.3583434 L28.1669534,88.3583434 L0,112.812814 L0,105.510257 L25.7124473,83.1607938 L36.2189305,83.1607938 Z M831.838081,129.93874 C830.301427,136.474563 823.314065,140.938495 815.669698,140.268041 C808.025332,139.597586 802.207465,134.010562 802.207465,127.339965 C802.207465,120.669369 808.025332,115.082345 815.669698,114.41189 C823.314065,113.741436 830.301427,118.205368 831.838081,124.741191 L887.782859,124.741191 L909.963212,105.484269 L909.963212,112.812814 L890.237365,129.93874 L831.838081,129.93874 Z M783.945281,545.742709 C782.408626,552.278532 775.421264,556.742464 767.776898,556.072009 C760.132531,555.401555 754.314665,549.814531 754.314665,543.143934 C754.314665,536.473338 760.132531,530.886314 767.776898,530.215859 C775.421264,529.545405 782.408626,534.009337 783.945281,540.54516 L862.070412,540.54516 L862.070412,354.966651 L909.963212,313.386254 L909.963212,320.714799 L868.057012,357.097646 L868.057012,545.742709 L783.945281,545.742709 Z M161.338872,628.903503 C159.802218,635.439326 152.814856,639.903258 145.170489,639.232803 C137.526123,638.562348 131.708256,632.975325 131.708256,626.304728 C131.708256,619.634132 137.526123,614.047108 145.170489,613.376653 C152.814856,612.706198 159.802218,617.17013 161.338872,623.705953 L191.571203,623.705953 L191.571203,564.99963 L121.498049,504.162312 L65.5532709,504.162312 C64.0166163,510.698135 57.0292542,515.162067 49.384888,514.491613 C41.7405218,513.821158 35.9226552,508.234134 35.9226552,501.563537 C35.9226552,494.892941 41.7405218,489.305917 49.384888,488.635462 C57.0292542,487.965008 64.0166163,492.42894 65.5532709,498.964763 L123.952555,498.964763 L197.557803,562.868635 L197.557803,628.903503 L161.338872,628.903503 Z M610.932538,665.28635 C612.469193,658.750527 619.456555,654.286595 627.100921,654.95705 C634.745287,655.627505 640.563154,661.214529 640.563154,667.885125 C640.563154,674.555722 634.745287,680.142745 627.100921,680.8132 C619.456555,681.483655 612.469193,677.019723 610.932538,670.4839 L287.356804,670.4839 L287.356804,523.393246 L169.420782,421.001519 L113.446072,421.001519 C111.909417,427.537342 104.922055,432.001273 97.2776886,431.330819 C89.6333224,430.660364 83.8154558,425.07334 83.8154558,418.402744 C83.8154558,411.732147 89.6333224,406.145123 97.2776886,405.474669 C104.922055,404.804214 111.909417,409.268146 113.446072,415.803969 L171.815422,415.803969 L293.343404,521.314226 L293.343404,665.28635 L610.932538,665.28635 Z M161.338872,670.4839 C159.802218,677.019723 152.814856,681.483655 145.170489,680.8132 C137.526123,680.142745 131.708256,674.555722 131.708256,667.885125 C131.708256,661.214529 137.526123,655.627505 145.170489,654.95705 C152.814856,654.286595 159.802218,658.750527 161.338872,665.28635 L239.464003,665.28635 L239.464003,544.209432 L145.444449,462.581915 L65.5532709,462.581915 C64.0166163,469.117738 57.0292542,473.58167 49.384888,472.911216 C41.7405218,472.240761 35.9226552,466.653737 35.9226552,459.983141 C35.9226552,453.312544 41.7405218,447.72552 49.384888,447.055066 C57.0292542,446.384611 64.0166163,450.848543 65.5532709,457.384366 L147.898955,457.384366 L245.450603,542.078437 L245.450603,670.4839 L161.338872,670.4839 Z M101.772201,103.431237 L101.772201,107.615265 L28.1669534,171.519137 L0,171.519137 L0,166.321588 L25.7124473,166.321588 L95.7856013,105.484269 L95.7856013,0 L101.772201,0 L101.772201,103.431237 Z M5.98660008,779.892319 C11.8663056,780.933401 16.46134,784.922797 17.6604702,790.027541 L11.4643392,790.027541 C10.6714574,788.076361 9.01774652,786.478836 6.86743985,785.586823 C4.71713318,784.69481 2.24660709,784.581476 1.0658141e-14,785.271783 L1.0658141e-14,665.28635 L53.8794007,665.28635 L53.8794007,790.027541 L47.8928006,790.027541 L47.8928006,670.4839 L5.98660008,670.4839 L5.98660008,779.892319 Z M101.772201,626.304728 L101.772201,790.027541 L95.7856013,790.027541 L95.7856013,628.903503 L0,628.903503 L0,623.705953 L101.772201,623.705953 L101.772201,626.304728 Z M50.8861007,46.7779465 L0,46.7779465 L0,41.5803969 L47.8928006,41.5803969 L47.8928006,0 L53.8794007,0 L53.8794007,46.7779465 L50.8861007,46.7779465 Z M868.057012,41.5803969 L909.963212,41.5803969 L909.963212,46.7779465 L862.070412,46.7779465 L862.070412,0 L868.057012,0 L868.057012,41.5803969 Z M772.27141,751.045919 L772.27141,790.027541 L766.28481,790.027541 L766.28481,753.644694 L724.37861,753.644694 L724.37861,790.027541 L718.39201,790.027541 L718.39201,748.447144 L772.27141,748.447144 L772.27141,751.045919 Z M0,239.34716 C4.40081252,238.586595 8.96284641,239.573356 12.4382934,242.037545 C15.9137404,244.501733 17.9388817,248.185461 17.9598002,252.081156 C17.9607177,255.983511 15.9414805,259.679606 12.4601291,262.147981 C8.97877775,264.616356 4.40396681,265.595624 1.12159034e-14,264.815153 L1.12159034e-14,259.435689 C3.72010169,260.571865 7.85867511,259.467897 10.2022037,256.714244 C12.5457324,253.960591 12.5457324,250.201722 10.2022037,247.448068 C7.85867511,244.694415 3.72010169,243.590448 5.48333053e-15,244.726623 L5.48333053e-15,239.34716 Z M239.464003,706.866747 L245.450603,706.866747 L245.450603,790.027541 L239.464003,790.027541 L239.464003,706.866747 Z M352.910075,790.027541 L346.713944,790.027541 C345.449367,786.90656 342.053629,784.818401 338.242905,784.818401 C334.43218,784.818401 331.036442,786.90656 329.771865,790.027541 L323.575734,790.027541 C324.992141,783.971554 331.125191,779.619415 338.242905,779.619415 C345.360618,779.619415 351.493668,783.971554 352.910075,790.027541 Z M17.6604702,8.65565887e-16 C18.635169,4.2706632 17.0918156,8.68201076 13.54593,11.7605389 C10.0000443,14.839067 4.91900118,16.1790021 0,15.3327714 L0,9.95330751 C3.26367967,10.9578528 6.90183078,10.2437227 9.3503368,8.11793651 C11.7988428,5.99215037 12.6213864,2.83351765 11.4643392,0 L17.6604702,8.65565887e-16 Z M898.289342,0 L904.485473,0 C903.690369,1.95049805 903.820909,4.09540196 904.84834,5.96229226 C905.875771,7.82918256 907.71582,9.26492972 909.963212,9.95330751 L909.963212,15.3327714 C906.07284,14.6441667 902.657049,12.6416813 900.467639,9.76605256 C898.27823,6.89042382 897.494643,3.37733505 898.289342,1.08195736e-14 Z M909.963212,779.892319 L909.963212,785.271783 C907.403108,786.05659 905.389423,787.804866 904.485473,790.027541 L898.289342,790.027541 C899.488472,784.922797 904.083507,780.933401 909.963212,779.892319 Z M290.350104,259.877481 C293.558313,259.877481 296.522821,258.39151 298.126926,255.979318 C299.731031,253.567127 299.731031,250.595185 298.126926,248.182994 C296.522821,245.770803 293.558313,244.284832 290.350104,244.284832 C285.390642,244.284832 281.370204,247.775365 281.370204,252.081156 C281.370204,256.386947 285.390642,259.877481 290.350104,259.877481 Z M290.350104,218.297084 C295.309566,218.297084 299.330004,214.80655 299.330004,210.500759 C299.330004,206.194968 295.309566,202.704435 290.350104,202.704435 C285.390642,202.704435 281.370204,206.194968 281.370204,210.500759 C281.370204,214.80655 285.390642,218.297084 290.350104,218.297084 Z M338.242905,259.877481 C341.451114,259.877481 344.415622,258.39151 346.019727,255.979318 C347.623831,253.567127 347.623831,250.595185 346.019727,248.182994 C344.415622,245.770803 341.451114,244.284832 338.242905,244.284832 C333.283443,244.284832 329.263004,247.775365 329.263004,252.081156 C329.263004,256.386947 333.283443,259.877481 338.242905,259.877481 Z M386.135705,301.457877 C391.095167,301.457877 395.115605,297.967344 395.115605,293.661553 C395.115605,289.355762 391.095167,285.865229 386.135705,285.865229 C381.176243,285.865229 377.155805,289.355762 377.155805,293.661553 C377.155805,297.967344 381.176243,301.457877 386.135705,301.457877 Z M386.135705,343.038274 C391.095167,343.038274 395.115605,339.547741 395.115605,335.24195 C395.115605,330.936159 391.095167,327.445626 386.135705,327.445626 C381.176243,327.445626 377.155805,330.936159 377.155805,335.24195 C377.155805,339.547741 381.176243,343.038274 386.135705,343.038274 Z M242.457303,426.199068 C247.416765,426.199068 251.437203,422.708535 251.437203,418.402744 C251.437203,414.096953 247.416765,410.606419 242.457303,410.606419 C237.497841,410.606419 233.477403,414.096953 233.477403,418.402744 C233.477403,422.708535 237.497841,426.199068 242.457303,426.199068 Z M290.350104,467.779465 C295.309566,467.779465 299.330004,464.288932 299.330004,459.983141 C299.330004,455.67735 295.309566,452.186816 290.350104,452.186816 C285.390642,452.186816 281.370204,455.67735 281.370204,459.983141 C281.370204,464.288932 285.390642,467.779465 290.350104,467.779465 Z M386.135705,592.520656 C391.095167,592.520656 395.115605,589.030122 395.115605,584.724331 C395.115605,580.41854 391.095167,576.928007 386.135705,576.928007 C381.176243,576.928007 377.155805,580.41854 377.155805,584.724331 C377.155805,589.030122 381.176243,592.520656 386.135705,592.520656 Z M338.242905,634.101053 C343.202366,634.101053 347.222805,630.610519 347.222805,626.304728 C347.222805,621.998937 343.202366,618.508404 338.242905,618.508404 C333.283443,618.508404 329.263004,621.998937 329.263004,626.304728 C329.263004,630.610519 333.283443,634.101053 338.242905,634.101053 Z M434.028506,592.520656 C438.987968,592.520656 443.008406,589.030122 443.008406,584.724331 C443.008406,580.41854 438.987968,576.928007 434.028506,576.928007 C429.069044,576.928007 425.048606,580.41854 425.048606,584.724331 C425.048606,589.030122 429.069044,592.520656 434.028506,592.520656 Z M434.028506,509.359862 C438.987968,509.359862 443.008406,505.869329 443.008406,501.563537 C443.008406,497.257746 438.987968,493.767213 434.028506,493.767213 C429.069044,493.767213 425.048606,497.257746 425.048606,501.563537 C425.048606,505.869329 429.069044,509.359862 434.028506,509.359862 Z M481.921306,592.520656 C486.880768,592.520656 490.901207,589.030122 490.901207,584.724331 C490.901207,580.41854 486.880768,576.928007 481.921306,576.928007 C476.961845,576.928007 472.941406,580.41854 472.941406,584.724331 C472.941406,589.030122 476.961845,592.520656 481.921306,592.520656 Z M577.706908,634.101053 C582.66637,634.101053 586.686808,630.610519 586.686808,626.304728 C586.686808,621.998937 582.66637,618.508404 577.706908,618.508404 C572.747446,618.508404 568.727008,621.998937 568.727008,626.304728 C568.727008,630.610519 572.747446,634.101053 577.706908,634.101053 Z M577.706908,592.520656 C582.66637,592.520656 586.686808,589.030122 586.686808,584.724331 C586.686808,580.41854 582.66637,576.928007 577.706908,576.928007 C572.747446,576.928007 568.727008,580.41854 568.727008,584.724331 C568.727008,589.030122 572.747446,592.520656 577.706908,592.520656 Z M529.814107,426.199068 C534.773569,426.199068 538.794007,422.708535 538.794007,418.402744 C538.794007,414.096953 534.773569,410.606419 529.814107,410.606419 C524.854645,410.606419 520.834207,414.096953 520.834207,418.402744 C520.834207,422.708535 524.854645,426.199068 529.814107,426.199068 Z M577.706908,426.199068 C582.66637,426.199068 586.686808,422.708535 586.686808,418.402744 C586.686808,414.096953 582.66637,410.606419 577.706908,410.606419 C572.747446,410.606419 568.727008,414.096953 568.727008,418.402744 C568.727008,422.708535 572.747446,426.199068 577.706908,426.199068 Z M625.599708,675.681449 C630.55917,675.681449 634.579609,672.190916 634.579609,667.885125 C634.579609,663.579334 630.55917,660.088801 625.599708,660.088801 C620.640247,660.088801 616.619808,663.579334 616.619808,667.885125 C616.619808,672.190916 620.640247,675.681449 625.599708,675.681449 Z M625.599708,717.261846 C630.55917,717.261846 634.579609,713.771313 634.579609,709.465522 C634.579609,705.159731 630.55917,701.669198 625.599708,701.669198 C620.640247,701.669198 616.619808,705.159731 616.619808,709.465522 C616.619808,713.771313 620.640247,717.261846 625.599708,717.261846 Z M673.492509,758.842243 C678.451971,758.842243 682.472409,755.35171 682.472409,751.045919 C682.472409,746.740128 678.451971,743.249594 673.492509,743.249594 C668.533047,743.249594 664.512609,746.740128 664.512609,751.045919 C664.512609,755.35171 668.533047,758.842243 673.492509,758.842243 Z M721.38531,384.618671 C726.344772,384.618671 730.36521,381.128138 730.36521,376.822347 C730.36521,372.516556 726.344772,369.026022 721.38531,369.026022 C716.425848,369.026022 712.40541,372.516556 712.40541,376.822347 C712.40541,381.128138 716.425848,384.618671 721.38531,384.618671 Z M721.38531,467.779465 C726.344772,467.779465 730.36521,464.288932 730.36521,459.983141 C730.36521,455.67735 726.344772,452.186816 721.38531,452.186816 C716.425848,452.186816 712.40541,455.67735 712.40541,459.983141 C712.40541,464.288932 716.425848,467.779465 721.38531,467.779465 Z M769.27811,384.618671 C774.237572,384.618671 778.25801,381.128138 778.25801,376.822347 C778.25801,372.516556 774.237572,369.026022 769.27811,369.026022 C764.318648,369.026022 760.29821,372.516556 760.29821,376.822347 C760.29821,381.128138 764.318648,384.618671 769.27811,384.618671 Z M817.170911,343.038274 C822.130373,343.038274 826.150811,339.547741 826.150811,335.24195 C826.150811,330.936159 822.130373,327.445626 817.170911,327.445626 C812.211449,327.445626 808.191011,330.936159 808.191011,335.24195 C808.191011,339.547741 812.211449,343.038274 817.170911,343.038274 Z M529.814107,343.038274 C534.773569,343.038274 538.794007,339.547741 538.794007,335.24195 C538.794007,330.936159 534.773569,327.445626 529.814107,327.445626 C524.854645,327.445626 520.834207,330.936159 520.834207,335.24195 C520.834207,339.547741 524.854645,343.038274 529.814107,343.038274 Z M529.814107,384.618671 C534.773569,384.618671 538.794007,381.128138 538.794007,376.822347 C538.794007,372.516556 534.773569,369.026022 529.814107,369.026022 C524.854645,369.026022 520.834207,372.516556 520.834207,376.822347 C520.834207,381.128138 524.854645,384.618671 529.814107,384.618671 Z M577.706908,301.457877 C582.66637,301.457877 586.686808,297.967344 586.686808,293.661553 C586.686808,289.355762 582.66637,285.865229 577.706908,285.865229 C572.747446,285.865229 568.727008,289.355762 568.727008,293.661553 C568.727008,297.967344 572.747446,301.457877 577.706908,301.457877 Z M865.063712,301.457877 C870.023174,301.457877 874.043612,297.967344 874.043612,293.661553 C874.043612,289.355762 870.023174,285.865229 865.063712,285.865229 C860.10425,285.865229 856.083812,289.355762 856.083812,293.661553 C856.083812,297.967344 860.10425,301.457877 865.063712,301.457877 Z M817.170911,135.13629 C822.130373,135.13629 826.150811,131.645757 826.150811,127.339965 C826.150811,123.034174 822.130373,119.543641 817.170911,119.543641 C812.211449,119.543641 808.191011,123.034174 808.191011,127.339965 C808.191011,131.645757 812.211449,135.13629 817.170911,135.13629 Z M865.063712,93.555893 C870.023174,93.555893 874.043612,90.0653597 874.043612,85.7595686 C874.043612,81.4537775 870.023174,77.9632442 865.063712,77.9632442 C860.10425,77.9632442 856.083812,81.4537775 856.083812,85.7595686 C856.083812,90.0653597 860.10425,93.555893 865.063712,93.555893 Z M769.27811,93.555893 C774.237572,93.555893 778.25801,90.0653597 778.25801,85.7595686 C778.25801,81.4537775 774.237572,77.9632442 769.27811,77.9632442 C764.318648,77.9632442 760.29821,81.4537775 760.29821,85.7595686 C760.29821,90.0653597 764.318648,93.555893 769.27811,93.555893 Z M769.27811,51.9754961 C774.237572,51.9754961 778.25801,48.4849628 778.25801,44.1791717 C778.25801,39.8733806 774.237572,36.3828473 769.27811,36.3828473 C764.318648,36.3828473 760.29821,39.8733806 760.29821,44.1791717 C760.29821,48.4849628 764.318648,51.9754961 769.27811,51.9754961 Z M721.38531,51.9754961 C726.344772,51.9754961 730.36521,48.4849628 730.36521,44.1791717 C730.36521,39.8733806 726.344772,36.3828473 721.38531,36.3828473 C716.425848,36.3828473 712.40541,39.8733806 712.40541,44.1791717 C712.40541,48.4849628 716.425848,51.9754961 721.38531,51.9754961 Z M673.492509,51.9754961 C678.451971,51.9754961 682.472409,48.4849628 682.472409,44.1791717 C682.472409,39.8733806 678.451971,36.3828473 673.492509,36.3828473 C668.533047,36.3828473 664.512609,39.8733806 664.512609,44.1791717 C664.512609,48.4849628 668.533047,51.9754961 673.492509,51.9754961 Z M625.599708,51.9754961 C630.55917,51.9754961 634.579609,48.4849628 634.579609,44.1791717 C634.579609,39.8733806 630.55917,36.3828473 625.599708,36.3828473 C620.640247,36.3828473 616.619808,39.8733806 616.619808,44.1791717 C616.619808,48.4849628 620.640247,51.9754961 625.599708,51.9754961 Z M146.671702,93.555893 C151.631164,93.555893 155.651602,90.0653597 155.651602,85.7595686 C155.651602,81.4537775 151.631164,77.9632442 146.671702,77.9632442 C141.71224,77.9632442 137.691802,81.4537775 137.691802,85.7595686 C137.691802,90.0653597 141.71224,93.555893 146.671702,93.555893 Z M50.8861007,93.555893 C55.8455626,93.555893 59.8660008,90.0653597 59.8660008,85.7595686 C59.8660008,81.4537775 55.8455626,77.9632442 50.8861007,77.9632442 C45.9266388,77.9632442 41.9062006,81.4537775 41.9062006,85.7595686 C41.9062006,90.0653597 45.9266388,93.555893 50.8861007,93.555893 Z M146.671702,135.13629 C151.631164,135.13629 155.651602,131.645757 155.651602,127.339965 C155.651602,123.034174 151.631164,119.543641 146.671702,119.543641 C141.71224,119.543641 137.691802,123.034174 137.691802,127.339965 C137.691802,131.645757 141.71224,135.13629 146.671702,135.13629 Z M98.7789013,176.716687 C103.738363,176.716687 107.758801,173.226153 107.758801,168.920362 C107.758801,164.614571 103.738363,161.124038 98.7789013,161.124038 C93.8194394,161.124038 89.7990012,164.614571 89.7990012,168.920362 C89.7990012,173.226153 93.8194394,176.716687 98.7789013,176.716687 Z M146.671702,51.9754961 C151.631164,51.9754961 155.651602,48.4849628 155.651602,44.1791717 C155.651602,39.8733806 151.631164,36.3828473 146.671702,36.3828473 C141.71224,36.3828473 137.691802,39.8733806 137.691802,44.1791717 C137.691802,48.4849628 141.71224,51.9754961 146.671702,51.9754961 Z M146.671702,675.681449 C151.631164,675.681449 155.651602,672.190916 155.651602,667.885125 C155.651602,663.579334 151.631164,660.088801 146.671702,660.088801 C141.71224,660.088801 137.691802,663.579334 137.691802,667.885125 C137.691802,672.190916 141.71224,675.681449 146.671702,675.681449 Z M194.564503,758.842243 C199.523965,758.842243 203.544403,755.35171 203.544403,751.045919 C203.544403,746.740128 199.523965,743.249594 194.564503,743.249594 C189.605041,743.249594 185.584602,746.740128 185.584602,751.045919 C185.584602,755.35171 189.605041,758.842243 194.564503,758.842243 Z M146.671702,592.520656 C151.631164,592.520656 155.651602,589.030122 155.651602,584.724331 C155.651602,580.41854 151.631164,576.928007 146.671702,576.928007 C141.71224,576.928007 137.691802,580.41854 137.691802,584.724331 C137.691802,589.030122 141.71224,592.520656 146.671702,592.520656 Z M146.671702,634.101053 C151.631164,634.101053 155.651602,630.610519 155.651602,626.304728 C155.651602,621.998937 151.631164,618.508404 146.671702,618.508404 C141.71224,618.508404 137.691802,621.998937 137.691802,626.304728 C137.691802,630.610519 141.71224,634.101053 146.671702,634.101053 Z M98.7789013,550.940259 C103.738363,550.940259 107.758801,547.449725 107.758801,543.143934 C107.758801,538.838143 103.738363,535.34761 98.7789013,535.34761 C93.8194394,535.34761 89.7990012,538.838143 89.7990012,543.143934 C89.7990012,547.449725 93.8194394,550.940259 98.7789013,550.940259 Z M338.242905,93.555893 C343.202366,93.555893 347.222805,90.0653597 347.222805,85.7595686 C347.222805,81.4537775 343.202366,77.9632442 338.242905,77.9632442 C333.283443,77.9632442 329.263004,81.4537775 329.263004,85.7595686 C329.263004,90.0653597 333.283443,93.555893 338.242905,93.555893 Z M386.135705,93.555893 C391.095167,93.555893 395.115605,90.0653597 395.115605,85.7595686 C395.115605,81.4537775 391.095167,77.9632442 386.135705,77.9632442 C381.176243,77.9632442 377.155805,81.4537775 377.155805,85.7595686 C377.155805,90.0653597 381.176243,93.555893 386.135705,93.555893 Z M338.242905,51.9754961 C343.202366,51.9754961 347.222805,48.4849628 347.222805,44.1791717 C347.222805,39.8733806 343.202366,36.3828473 338.242905,36.3828473 C333.283443,36.3828473 329.263004,39.8733806 329.263004,44.1791717 C329.263004,48.4849628 333.283443,51.9754961 338.242905,51.9754961 Z M434.028506,176.716687 C438.987968,176.716687 443.008406,173.226153 443.008406,168.920362 C443.008406,164.614571 438.987968,161.124038 434.028506,161.124038 C429.069044,161.124038 425.048606,164.614571 425.048606,168.920362 C425.048606,173.226153 429.069044,176.716687 434.028506,176.716687 Z M481.921306,135.13629 C486.880768,135.13629 490.901207,131.645757 490.901207,127.339965 C490.901207,123.034174 486.880768,119.543641 481.921306,119.543641 C476.961845,119.543641 472.941406,123.034174 472.941406,127.339965 C472.941406,131.645757 476.961845,135.13629 481.921306,135.13629 Z M481.921306,51.9754961 C486.880768,51.9754961 490.901207,48.4849628 490.901207,44.1791717 C490.901207,39.8733806 486.880768,36.3828473 481.921306,36.3828473 C476.961845,36.3828473 472.941406,39.8733806 472.941406,44.1791717 C472.941406,48.4849628 476.961845,51.9754961 481.921306,51.9754961 Z M817.170911,509.359862 C822.130373,509.359862 826.150811,505.869329 826.150811,501.563537 C826.150811,497.257746 822.130373,493.767213 817.170911,493.767213 C812.211449,493.767213 808.191011,497.257746 808.191011,501.563537 C808.191011,505.869329 812.211449,509.359862 817.170911,509.359862 Z M769.27811,550.940259 C774.237572,550.940259 778.25801,547.449725 778.25801,543.143934 C778.25801,538.838143 774.237572,535.34761 769.27811,535.34761 C764.318648,535.34761 760.29821,538.838143 760.29821,543.143934 C760.29821,547.449725 764.318648,550.940259 769.27811,550.940259 Z M769.27811,592.520656 C774.237572,592.520656 778.25801,589.030122 778.25801,584.724331 C778.25801,580.41854 774.237572,576.928007 769.27811,576.928007 C764.318648,576.928007 760.29821,580.41854 760.29821,584.724331 C760.29821,589.030122 764.318648,592.520656 769.27811,592.520656 Z M769.27811,634.101053 C774.237572,634.101053 778.25801,630.610519 778.25801,626.304728 C778.25801,621.998937 774.237572,618.508404 769.27811,618.508404 C764.318648,618.508404 760.29821,621.998937 760.29821,626.304728 C760.29821,630.610519 764.318648,634.101053 769.27811,634.101053 Z M50.8861007,467.779465 C55.8455626,467.779465 59.8660008,464.288932 59.8660008,459.983141 C59.8660008,455.67735 55.8455626,452.186816 50.8861007,452.186816 C45.9266388,452.186816 41.9062006,455.67735 41.9062006,459.983141 C41.9062006,464.288932 45.9266388,467.779465 50.8861007,467.779465 Z M50.8861007,509.359862 C55.8455626,509.359862 59.8660008,505.869329 59.8660008,501.563537 C59.8660008,497.257746 55.8455626,493.767213 50.8861007,493.767213 C45.9266388,493.767213 41.9062006,497.257746 41.9062006,501.563537 C41.9062006,505.869329 45.9266388,509.359862 50.8861007,509.359862 Z M50.8861007,426.199068 C55.8455626,426.199068 59.8660008,422.708535 59.8660008,418.402744 C59.8660008,414.096953 55.8455626,410.606419 50.8861007,410.606419 C45.9266388,410.606419 41.9062006,414.096953 41.9062006,418.402744 C41.9062006,422.708535 45.9266388,426.199068 50.8861007,426.199068 Z M98.7789013,426.199068 C103.738363,426.199068 107.758801,422.708535 107.758801,418.402744 C107.758801,414.096953 103.738363,410.606419 98.7789013,410.606419 C93.8194394,410.606419 89.7990012,414.096953 89.7990012,418.402744 C89.7990012,422.708535 93.8194394,426.199068 98.7789013,426.199068 Z M50.8861007,218.297084 C55.8455626,218.297084 59.8660008,214.80655 59.8660008,210.500759 C59.8660008,206.194968 55.8455626,202.704435 50.8861007,202.704435 C45.9266388,202.704435 41.9062006,206.194968 41.9062006,210.500759 C41.9062006,214.80655 45.9266388,218.297084 50.8861007,218.297084 Z M146.671702,384.618671 C151.631164,384.618671 155.651602,381.128138 155.651602,376.822347 C155.651602,372.516556 151.631164,369.026022 146.671702,369.026022 C141.71224,369.026022 137.691802,372.516556 137.691802,376.822347 C137.691802,381.128138 141.71224,384.618671 146.671702,384.618671 Z M194.564503,343.038274 C199.523965,343.038274 203.544403,339.547741 203.544403,335.24195 C203.544403,330.936159 199.523965,327.445626 194.564503,327.445626 C189.605041,327.445626 185.584602,330.936159 185.584602,335.24195 C185.584602,339.547741 189.605041,343.038274 194.564503,343.038274 Z" id="Shape"></path>
                    </g>
                </g>
            </g>
        </g>
    </g>
</svg>